<svg width="29" height="29" viewBox="0 0 29 29" fill="none" xmlns="http://www.w3.org/2000/svg">
<path d="M28.3333 14.1667C28.3333 6.34667 21.9867 -1.02406e-07 14.1667 -6.5983e-08C6.34667 -2.95604e-08 2.95604e-08 6.34667 6.5983e-08 14.1667C9.79187e-08 21.0233 4.87333 26.7325 11.3333 28.05L11.3333 18.4167L8.5 18.4167L8.5 14.1667L11.3333 14.1667L11.3333 10.625C11.3333 7.89083 13.5575 5.66667 16.2917 5.66667L19.8333 5.66667L19.8333 9.91667L17 9.91667C16.2208 9.91667 15.5833 10.5542 15.5833 11.3333L15.5833 14.1667L19.8333 14.1667L19.8333 18.4167L15.5833 18.4167L15.5833 28.2625C22.7375 27.5542 28.3333 21.5192 28.3333 14.1667Z" fill="white"/>
</svg>
