<svg width="1920" height="272" viewBox="0 0 1920 272" fill="none" xmlns="http://www.w3.org/2000/svg">
<circle cx="1807.37" cy="112.631" r="112.631" transform="rotate(-180 1807.37 112.631)" fill="#133630"/>
<circle cx="1660.42" cy="159.267" r="112.631" transform="rotate(-180 1660.42 159.267)" fill="#133630"/>
<circle cx="1072.63" cy="159.267" r="112.631" transform="rotate(-180 1072.63 159.267)" fill="#133630"/>
<circle cx="553.474" cy="159.267" r="112.631" transform="rotate(-180 553.474 159.267)" fill="#133630"/>
<circle cx="1366.53" cy="159.267" r="112.631" transform="rotate(-180 1366.53 159.267)" fill="#133630"/>
<circle cx="778.735" cy="159.267" r="112.631" transform="rotate(-180 778.735 159.267)" fill="#133630"/>
<circle cx="259.578" cy="159.267" r="112.631" transform="rotate(-180 259.578 159.267)" fill="#133630"/>
<circle cx="1513.47" cy="112.631" r="112.631" transform="rotate(-180 1513.47 112.631)" fill="#133630"/>
<circle cx="925.683" cy="112.631" r="112.631" transform="rotate(-180 925.683 112.631)" fill="#133630"/>
<circle cx="406.526" cy="112.631" r="112.631" transform="rotate(-180 406.526 112.631)" fill="#133630"/>
<circle cx="1219.58" cy="112.631" r="112.631" transform="rotate(-180 1219.58 112.631)" fill="#133630"/>
<circle cx="631.787" cy="112.631" r="112.631" transform="rotate(-180 631.787 112.631)" fill="#133630"/>
<circle cx="112.631" cy="112.631" r="112.631" transform="rotate(-180 112.631 112.631)" fill="#133630"/>
</svg>
