<svg width="60" height="77" viewBox="0 0 60 77" fill="none" xmlns="http://www.w3.org/2000/svg">
<path d="M1.9744 49.1994C17.27 49.1994 29.6702 61.3326 29.6753 76.3014C29.0231 76.3464 28.3647 76.3692 27.7009 76.3692C12.4053 76.3692 0.00511265 64.236 2.29468e-07 49.2672C0.652161 49.2222 1.31055 49.1994 1.9744 49.1994Z" fill="white"/>
<path d="M57.7502 49.1994C58.4141 49.1994 59.0725 49.2222 59.7246 49.2672C59.7195 64.236 47.3194 76.3692 32.0237 76.3692C31.3599 76.3692 30.7015 76.3464 30.0493 76.3014C30.0545 61.3326 42.4546 49.1994 57.7502 49.1994Z" fill="white"/>
<path fill-rule="evenodd" clip-rule="evenodd" d="M56.6075 11.0148L51.5529 11.0148C54.7339 15.3551 56.6075 20.6805 56.6075 26.4355C56.6075 41.0354 44.5495 52.871 29.6753 52.871C14.801 52.871 2.74309 41.0354 2.74309 26.4355C2.74309 12.6609 13.4764 1.34695 27.1816 0.111869L27.1816 -1.26601e-07L56.6075 -2.63656e-07L56.6075 11.0148ZM29.6753 11.6267C21.343 11.6267 14.5883 18.2568 14.5883 26.4355C14.5883 34.6142 21.343 41.2443 29.6753 41.2443C38.0076 41.2443 44.7623 34.6142 44.7623 26.4355C44.7623 18.2568 38.0076 11.6267 29.6753 11.6267Z" fill="white"/>
</svg>
