<svg width="28" height="22" viewBox="0 0 28 22" fill="none" xmlns="http://www.w3.org/2000/svg">
<path d="M27.0217 2.58333C26.0271 3.03542 24.955 3.3325 23.8442 3.47458C24.9808 2.79 25.8592 1.705 26.2725 0.400416C25.2004 1.04625 24.0121 1.49833 22.7592 1.75667C21.7387 0.645833 20.305 -9.4573e-08 18.6775 -8.69927e-08C15.6421 -7.28549e-08 13.1621 2.48 13.1621 5.54125C13.1621 5.98042 13.2137 6.40667 13.3042 6.80708C8.70583 6.57458 4.61125 4.36583 1.88583 1.02042C1.40792 1.83417 1.13667 2.79 1.13667 3.7975C1.13667 5.72208 2.10542 7.42708 3.60375 8.39583C2.68667 8.39583 1.83417 8.1375 1.085 7.75L1.085 7.78875C1.085 10.4754 2.99667 12.7229 5.52833 13.2267C4.71567 13.45 3.86213 13.481 3.03542 13.3171C3.38624 14.4182 4.07332 15.3817 5.00006 16.0721C5.92681 16.7625 7.04662 17.1452 8.20208 17.1663C6.24349 18.7169 3.8156 19.5551 1.3175 19.5429C0.878333 19.5429 0.439167 19.5171 9.06626e-08 19.4654C2.45417 21.0413 5.37333 21.9583 8.49917 21.9583C18.6775 21.9583 24.2704 13.5108 24.2704 6.18708C24.2704 5.94167 24.2704 5.70917 24.2575 5.46375C25.3425 4.68875 26.2725 3.70708 27.0217 2.58333Z" fill="white"/>
</svg>
