<svg width="1948" height="1165" viewBox="0 0 1948 1165" fill="none" xmlns="http://www.w3.org/2000/svg">
<path d="M256.921 1139.74C174.531 1076.37 51.3112 1095.09 0 1112.37V0H1948C1944.71 19.2189 1923.68 72.4495 1865.83 131.62C1843.29 154.678 1825.06 169.189 1806.53 178.824C1799.53 182.46 1792.49 185.402 1785.17 187.847C1774.62 191.364 1763.47 193.852 1750.98 195.898C1744.15 197.017 1736.92 198.004 1729.16 198.955C1720.47 200.02 1711.13 201.04 1700.96 202.15C1696.62 202.624 1692.13 203.114 1687.48 203.631C1680.58 204.398 1673.32 205.223 1665.66 206.143C1659.35 206.899 1652.78 207.718 1645.9 208.62C1640.68 209.305 1635.3 210.037 1629.72 210.826C1627.85 211.09 1626.02 211.389 1624.22 211.721C1610.38 214.278 1598.68 218.802 1588.54 224.847C1583.52 227.84 1578.89 231.206 1574.56 234.891C1563.25 244.543 1554.08 256.382 1545.8 269.433C1542.27 274.996 1538.9 280.779 1535.6 286.707C1525.94 304.03 1516.83 322.591 1505.82 340.508C1505.74 340.638 1505.66 340.768 1505.58 340.898L1505.35 341.269C1504.98 341.878 1504.6 342.486 1504.22 343.094C1496.02 356.158 1486.75 368.828 1475.44 380.367C1464.25 391.784 1451.07 402.093 1434.97 410.579C1431.96 412.167 1428.84 413.691 1425.62 415.146C1417.7 418.723 1409.13 421.887 1399.81 424.568C1396.01 425.662 1392.08 426.676 1388.03 427.604C1372.73 431.106 1355.59 433.397 1336.27 434.224C1333.87 434.326 1331.44 434.406 1328.98 434.464C1102.73 439.705 1118.07 609.763 1092.33 708.187C1066.58 806.611 910.929 812.291 871.012 820.006C858.961 822.336 719.818 882.905 652.985 989.482C586.153 1096.06 359.909 1218.94 256.921 1139.74Z" fill="black"/>
</svg>
